# xmcd
# 
# Track frame offsets:
#   150
#   16327
#   34637
#   52085
#   70022
#   84422
#   101002
#   121057
#   138965
#   154255
#   166382
#   184250
#   203410
#   221325
#   236512
# 
# Disc length: 3341 seconds
# 
# Revision: 0
# Processed by: cddbd v1.5.2PL0 Copyright (c) Steve Scherf et al.
# Submitted via: Synapstar 1.0 
# 
DISCID=c00d0b0f
DTITLE=Various Artist - sc ch vol 156 8784
DYEAR=1900
DGENRE=Country
TTITLE0=Steve Holly - I'm Not Breakin'
TTITLE1=Jennifer Hanson - Beautiful Goodbye
TTITLE2=Leann Rimes - Life Goes On
TTITLE3=Faith Hill - Cry
TTITLE4=Trick Pony - On a Mission
TTITLE5=Brooks and Dunn - Every River
TTITLE6=A. Griggs and M. McBride - Practice Life
TTITLE7=Arron Lines - You Can't Hide Beautiful
TTITLE8=Aaron Tippin - If Her Lovin' Don't Kill Me
TTITLE9=Dixie Chicks - White Trash Wedding
TTITLE10=Holly Lamar - These Are The Days
TTITLE11=Sheryl Crow and Natalie Maine - Abilene
TTITLE12=Dixie Chicks - Landslide
TTITLE13=Cyndi Thomson - If You Could Only See
TTITLE14=George Strait - She'll Leave You With a Smile
EXTD=MediaType: Karaoke CD+G Producer: Sound Choice
EXTT0=
EXTT1=
EXTT2=
EXTT3=
EXTT4=
EXTT5=
EXTT6=
EXTT7=
EXTT8=
EXTT9=
EXTT10=
EXTT11=
EXTT12=
EXTT13=
EXTT14=
PLAYORDER=
